<?xml version="1.0" encoding="UTF-8"?>
<svg version="1.1" xmlns="http://www.w3.org/2000/svg" width="200" height="200">
<path d="M0 0 C0.99 1.98 0.99 1.98 2 4 C3.98 3.01 5.96 2.02 8 1 C8.1953125 7.0546875 8.1953125 7.0546875 8 9 C7.34 9.66 6.68 10.32 6 11 C3.375 10.625 3.375 10.625 1 10 C0.63519531 10.77214844 0.27039063 11.54429688 -0.10546875 12.33984375 C-2.51047347 15.7167679 -4.41315129 16.27171213 -8.3125 17.5625 C-19.28162298 21.49826506 -26.20581007 27.68038524 -31.37109375 38.140625 C-32.21360259 40.30437824 -32.21360259 40.30437824 -32 44 C-31.38125 43.505 -30.7625 43.01 -30.125 42.5 C-28 41 -28 41 -26 41 C-26 43.64 -26 46.28 -26 49 C-24.78763672 48.36771484 -24.78763672 48.36771484 -23.55078125 47.72265625 C-22.48214844 47.17480469 -21.41351563 46.62695312 -20.3125 46.0625 C-18.72888672 45.24458984 -18.72888672 45.24458984 -17.11328125 44.41015625 C-14.33765953 43.1529424 -11.99727874 42.43930431 -9 42 C-8.25 43.6875 -8.25 43.6875 -8 46 C-10.45870354 49.99539325 -13.66351066 52.35695454 -17.51171875 54.88671875 C-19.15989263 55.94616763 -19.15989263 55.94616763 -20 58 C-9.72872941 55.44408877 -1.86344374 52.11633517 4.75 43.625 C7 41 7 41 9.8125 40.125 C10.534375 40.08375 11.25625 40.0425 12 40 C12.75390625 41.63671875 12.75390625 41.63671875 13 44 C11.33984375 46.76953125 11.33984375 46.76953125 8.9375 49.8125 C8.31331177 50.60817383 8.31331177 50.60817383 7.67651367 51.41992188 C6.46366188 52.95668555 5.23219291 54.47870034 4 56 C3.43023437 56.72574219 2.86046875 57.45148438 2.2734375 58.19921875 C-0.77595209 61.95795833 -3.75473335 64.64151853 -8 67 C-8.99 67 -9.98 67 -11 67 C-11 67.66 -11 68.32 -11 69 C-10.38125 69.268125 -9.7625 69.53625 -9.125 69.8125 C-7 71 -7 71 -5 74 C-4.66224261 78.5597248 -5.00159617 81.8782921 -7 86 C-10.93008778 84.68997074 -13.47778544 83.33292638 -16 80 C-16.88817586 76.10569048 -17.2685771 73.80573129 -16 70 C-17.77368892 70.22886309 -19.54401077 70.4839238 -21.3125 70.75 C-22.79169922 70.95882812 -22.79169922 70.95882812 -24.30078125 71.171875 C-27.6012958 72.1844786 -28.2880372 73.04799377 -30 76 C-30.54350098 76.90041016 -31.08700195 77.80082031 -31.64697266 78.72851562 C-33.28679767 82.693448 -32.95890238 84.50493511 -31.98046875 88.640625 C-31.55991211 90.49300781 -31.55991211 90.49300781 -31.13085938 92.3828125 C-30.66389648 94.29707031 -30.66389648 94.29707031 -30.1875 96.25 C-29.88282215 97.55423502 -29.58006819 98.85892106 -29.27929688 100.1640625 C-28.72913409 102.54435863 -28.1697468 104.92255397 -27.59838867 107.29785156 C-27 110 -27 110 -27 112 C-25.92794312 111.95866943 -25.92794312 111.95866943 -24.83422852 111.91650391 C-16.91306115 111.74604597 -9.67072196 112.72943693 -1.9375 114.375 C-0.82439453 114.59671875 0.28871094 114.8184375 1.43554688 115.046875 C9.5889194 116.72594626 9.5889194 116.72594626 13 119 C10.70819355 118.85638013 8.4165615 118.70997673 6.125 118.5625 C4.21074219 118.44068359 4.21074219 118.44068359 2.2578125 118.31640625 C-0.70041778 118.11500801 -3.63653174 117.82268773 -6.58300781 117.49291992 C-12.03831053 116.94412858 -17.44983876 116.82199758 -22.9296875 116.796875 C-23.95104797 116.79008728 -24.97240845 116.78329956 -26.02471924 116.77630615 C-29.30817752 116.75942894 -32.59150122 116.75311624 -35.875 116.75 C-37.54559479 116.74649536 -37.54559479 116.74649536 -39.24993896 116.74291992 C-56.35721701 116.72935275 -73.07496 117.3768281 -90 120 C-89.505 119.01 -89.505 119.01 -89 118 C-86.78198242 117.32983398 -86.78198242 117.32983398 -83.85546875 116.74609375 C-82.24961914 116.42415039 -82.24961914 116.42415039 -80.61132812 116.09570312 C-78.9165332 115.76989258 -78.9165332 115.76989258 -77.1875 115.4375 C-76.10017578 115.21642578 -75.01285156 114.99535156 -73.89257812 114.76757812 C-66.60859218 113.33501761 -59.40832136 112.45606406 -52 112 C-47.40346233 94.49915571 -47.40346233 94.49915571 -50.3125 76.875 C-52.81430466 72.61266614 -54.79908564 71.31842426 -59.609375 70.04296875 C-60.98916532 69.75579667 -62.36939421 69.47072569 -63.75 69.1875 C-76.76435998 66.13573659 -83.76777273 57.94063916 -91 47 C-92.3828125 44.19140625 -92.3828125 44.19140625 -93 42 C-92.67 41.34 -92.34 40.68 -92 40 C-88.86289476 40.32508863 -87.34455065 40.66714069 -85.04296875 42.890625 C-84.43066406 43.66921875 -83.81835938 44.4478125 -83.1875 45.25 C-76.55466543 53.04605556 -69.88738239 55.76443376 -60 58 C-62.6439203 55.27831734 -65.22993863 52.79787278 -68.25 50.5 C-71.13727362 47.8752058 -71.78216961 46.81203175 -72 43 C-69.21559788 42.20654275 -67.5928747 41.7630665 -64.859375 42.85546875 C-64.16328125 43.29503906 -63.4671875 43.73460937 -62.75 44.1875 C-58.30866356 46.8597663 -53.76887053 48.98196732 -49 51 C-47.67565233 45.1743583 -48.34776527 42.1840334 -51.125 36.9375 C-51.72570312 35.77089844 -52.32640625 34.60429688 -52.9453125 33.40234375 C-55.93669361 28.44893511 -59.04107761 24.16807411 -64.125 21.1875 C-64.78757812 20.78917969 -65.45015625 20.39085938 -66.1328125 19.98046875 C-68.13316988 18.86612466 -68.13316988 18.86612466 -71 18 C-71 17.34 -71 16.68 -71 16 C-70.030625 16.144375 -69.06125 16.28875 -68.0625 16.4375 C-63.71947831 17.06047442 -59.36234766 17.53507859 -55 18 C-55.144375 16.989375 -55.28875 15.97875 -55.4375 14.9375 C-55.95833333 11.29166667 -56.47916667 7.64583333 -57 4 C-53.5307482 4.57820863 -51.91348917 5.72680677 -49.5 8.25 C-48.90058594 8.87519531 -48.30117187 9.50039063 -47.68359375 10.14453125 C-45.68121846 12.35132537 -43.79935332 14.62485362 -42 17 C-38.81697032 16.71128983 -37.98164323 15.97924601 -35.81640625 13.53125 C-34.31472874 11.51166291 -32.81472563 9.49082972 -31.31640625 7.46875 C-28.79842279 4.7851656 -27.60370947 4.25422995 -24 4 C-24.33 6.31 -24.66 8.62 -25 11 C-23.35 11 -21.7 11 -20 11 C-19 15.875 -19 15.875 -19 17 C-16.69 16.34 -14.38 15.68 -12 15 C-12.103125 13.783125 -12.20625 12.56625 -12.3125 11.3125 C-12.31885589 7.72142193 -12.10299984 7.13161091 -9.75 4.125 C-6.295177 1.45536405 -4.39516531 0 0 0 Z M-27 12 C-28.00217064 15.58327753 -28.00217064 15.58327753 -27 19 C-25.35 19 -23.7 19 -22 19 C-22.45375 18.5875 -22.9075 18.175 -23.375 17.75 C-25.05950374 15.93591905 -25.99265971 14.24714373 -27 12 Z M-49 17 C-48 19 -48 19 -48 19 Z M-48 20 C-47 23 -47 23 -47 23 Z M-47 24 C-47 25.65 -47 27.3 -47 29 C-46.67 29 -46.34 29 -46 29 C-46 27.35 -46 25.7 -46 24 C-46.33 24 -46.66 24 -47 24 Z M-36 29 C-36 30.65 -36 32.3 -36 34 C-35.67 34 -35.34 34 -35 34 C-35 32.35 -35 30.7 -35 29 C-35.33 29 -35.66 29 -36 29 Z M-47 37 C-46 40 -46 40 -46 40 Z M-41 42 C-41.89429374 43.5725165 -42.76487427 45.15853741 -43.625 46.75 C-44.35589844 48.07257813 -44.35589844 48.07257813 -45.1015625 49.421875 C-46.26235363 51.92266293 -46.26235363 51.92266293 -45.3125 54.15625 C-43.47952869 56.73113827 -41.28941687 58.83107876 -39 61 C-36.61507598 58.55321253 -36.61507598 58.55321253 -35 55 C-35.6666428 49.92123449 -37.83808469 45.95911209 -41 42 Z M-32 50 C-32 50.66 -32 51.32 -32 52 C-31.34 51.67 -30.68 51.34 -30 51 C-30.66 50.67 -31.32 50.34 -32 50 Z M-37 67 C-36 69 -36 69 -36 69 Z M-36 71 C-35 73 -35 73 -35 73 Z M-35 75 C-34 77 -34 77 -34 77 Z " fill="#FFFFFF" transform="translate(141,36)"/>
<path d="M0 0 C2.13287531 7.19845418 3.35968282 14.13563831 0.8125 21.375 C-2.92808 26.79239173 -6.81763873 28.54532676 -13 30 C-13 29.34 -13 28.68 -13 28 C-13.99 27.67 -14.98 27.34 -16 27 C-17.1875 24.4375 -17.1875 24.4375 -18 22 C-18.5775 22.78375 -19.155 23.5675 -19.75 24.375 C-21.86884122 26.84698143 -22.9324604 28.07044255 -26 29 C-28.625 28.8125 -28.625 28.8125 -31 28 C-33.07759477 24.88360785 -33.60130132 22.92723184 -33.51171875 19.19921875 C-32.48925851 14.80498122 -29.38271755 11.82230726 -26 9 C-22.5625 7.5 -22.5625 7.5 -20 7 C-19.67 9.64 -19.34 12.28 -19 15 C-18.34 15 -17.68 15 -17 15 C-16.92394531 14.26136719 -16.84789062 13.52273437 -16.76953125 12.76171875 C-15.80431913 9.29773414 -14.41120192 8.11717085 -11.6875 5.8125 C-10.90761719 5.13832031 -10.12773437 4.46414062 -9.32421875 3.76953125 C-6.08949827 1.30679448 -4.10515032 0 0 0 Z M-12 24 C-11 26 -11 26 -11 26 Z " fill="#FFFFFF" transform="translate(149,50)"/>
<path d="M0 0 C0.99 0 1.98 0 3 0 C7.6659484 5.68699563 9.84503973 11.83924633 11 19 C12.65 17.68 14.3 16.36 16 15 C16.66 15.33 17.32 15.66 18 16 C18.92015848 18.76047543 19.19267245 20.63362269 19.25 23.5 C19.27578125 24.2734375 19.3015625 25.046875 19.328125 25.84375 C18.9191023 28.53161348 18.1404661 29.37426503 16 31 C13.5 31.4375 13.5 31.4375 11 31 C9.1875 29 9.1875 29 8 27 C6.9171875 28.0209375 6.9171875 28.0209375 5.8125 29.0625 C3 31 3 31 0.5 31.0625 C-2.76739182 29.67385848 -4.64890832 27.61978788 -7 25 C-8.485 27.475 -8.485 27.475 -10 30 C-13.26892205 29.73495227 -14.63439501 29.40216549 -16.875 26.9375 C-18.44954177 22.8261965 -17.84740516 20.30764287 -17 16 C-16.67 15.34 -16.34 14.68 -16 14 C-12.68273845 14.57194165 -11.27364177 15.57000464 -9 18 C-8.76925781 17.28714844 -8.53851563 16.57429688 -8.30078125 15.83984375 C-6.24495827 9.80238733 -4.19834609 4.84424549 0 0 Z " fill="#FFFFFF" transform="translate(99,7)"/>
<path d="M0 0 C6.34504636 1.30154797 10.66734081 5.40738126 15 10 C17.07493568 13.17724526 17.27066786 15.73844932 17.25 19.5 C17.25515625 20.4384375 17.2603125 21.376875 17.265625 22.34375 C16.99127504 25.08724957 16.52995127 26.71803879 15 29 C10.99921823 30.48866298 9.31538192 30.13594048 5.375 28.4375 C1.77564644 26.05123234 -0.2499924 24.06001763 -2 20 C-2.66194873 12.9447996 -2.5396746 6.66410616 0 0 Z " fill="#FFFFFF" transform="translate(51,48)"/>
<path d="M0 0 C-0.42445308 6.79124923 -2.9836858 11.58470244 -7.4765625 16.671875 C-10.87993681 19.63891927 -14.72687368 19.15261165 -19 19 C-19.99 18.67 -20.98 18.34 -22 18 C-23.5547669 14.89046621 -23.28644437 12.43733239 -23 9 C-21.18318899 5.06357615 -19.36959053 2.85285908 -15.4375 1.125 C-10.38023734 -0.50976733 -5.25361747 -0.2607494 0 0 Z " fill="#FFFFFF" transform="translate(187,40)"/>
<path d="M0 0 C4.75492577 3.45812783 7.3607408 8.42285557 9 14 C9.06417621 15.99897009 9.07763928 18.00150753 9 20 C-5.37799401 18.37874251 -5.37799401 18.37874251 -10 14 C-12.68443011 9.88387383 -13.34865757 6.881206 -13 2 C-12.34 2 -11.68 2 -11 2 C-11 1.34 -11 0.68 -11 0 C-7.13275748 -1.28908084 -3.87337504 -1.07846913 0 0 Z " fill="#FFFFFF" transform="translate(153,101)"/>
<path d="M0 0 C0.89203125 0.01804687 1.7840625 0.03609375 2.703125 0.0546875 C3.71632813 0.08949219 3.71632813 0.08949219 4.75 0.125 C6.50074064 3.62648127 6.29675199 7.30416842 5.75 11.125 C2.80244119 16.25945729 -0.25833672 18.05199342 -5.890625 19.66796875 C-9.4245535 20.35252112 -12.6594666 20.32084728 -16.25 20.125 C-15.31988968 13.3504651 -13.89174365 7.35657848 -9.25 2.125 C-6.13623631 0.07124097 -3.6842968 -0.09695518 0 0 Z " fill="#FFFFFF" transform="translate(53.25,98.875)"/>
<path d="M0 0 C2.20770805 -0.08165496 4.41630425 -0.13948488 6.625 -0.1875 C7.85476562 -0.22230469 9.08453125 -0.25710937 10.3515625 -0.29296875 C15.03921191 0.08344849 18.36498201 1.47774187 21.8125 4.6875 C23.60470154 8.17757669 23.8127823 11.06842831 24 15 C23.01 16.485 23.01 16.485 22 18 C16.69949328 19.03931504 12.22759606 18.71423771 7.5625 16 C3.36374512 11.08438453 1.11538583 6.36101226 0 0 Z " fill="#FFFFFF" transform="translate(12,39)"/>
<path d="M0 0 C2.68433953 2.44030866 4.40971556 4.63299975 6.0625 7.875 C5.8125 11.25 5.8125 11.25 5.0625 13.875 C0.13222927 15.97036506 -3.83869297 16.43523495 -8.9375 14.875 C-13.89271885 11.63504922 -16.49677862 8.14695818 -18.9375 2.875 C-18.6075 1.885 -18.2775 0.895 -17.9375 -0.125 C-12.57679248 -2.21579749 -5.2912405 -2.02643253 0 0 Z " fill="#FFFFFF" transform="translate(25.9375,59.125)"/>
<path d="M0 0 C1.23492187 -0.00257812 2.46984375 -0.00515625 3.7421875 -0.0078125 C6.43274489 0.09782139 8.58129184 0.31970546 11.125 1.125 C9.67653931 7.06368883 6.46575153 12.05918834 1.2109375 15.30859375 C-2.41657743 16.72835147 -6.04538636 16.60985017 -9.875 16.125 C-12.4375 14.625 -12.4375 14.625 -13.875 13.125 C-13.46134898 7.85094947 -12.58526864 4.94770102 -8.875 1.125 C-5.93138781 -0.3468061 -3.27451798 -0.00680773 0 0 Z " fill="#FFFFFF" transform="translate(181.875,59.875)"/>
<path d="M0 0 C2.60243302 -0.00203157 5.20485866 -0.00578086 7.80728912 -0.00990677 C25.1207594 -0.03378373 42.42324292 0.03363449 59.72959137 0.56824875 C61.64078262 0.6263623 61.64078262 0.6263623 63.5905838 0.68564987 C71.09118265 0.94375785 78.54645047 1.42153425 86.01865387 2.12293625 C86.01865387 2.45293625 86.01865387 2.78293625 86.01865387 3.12293625 C25.29865387 3.12293625 -35.42134613 3.12293625 -97.98134613 3.12293625 C-97.98134613 2.79293625 -97.98134613 2.46293625 -97.98134613 2.12293625 C-86.27599008 1.4246589 -74.57920946 0.8510907 -62.85634613 0.56043625 C-61.60957092 0.52916641 -61.60957092 0.52916641 -60.33760834 0.49726486 C-40.22833995 0.01850573 -20.11383323 0.01228478 0 0 Z " fill="#FFFFFF" transform="translate(106.9813461303711,181.8770637512207)"/>
<path d="M0 0 C2 1 2 1 2.609375 2.7890625 C3.50128743 7.83728686 3.4594515 12.44935118 2 17.375 C-0.84805814 21.11307631 -3.53436094 21.68227044 -8 23 C-10.89741846 20.22855626 -11.91688506 18.8643954 -12.3125 14.75 C-11.93247209 10.18966512 -10.99448564 8.44365848 -8 5 C-5.47415845 3.05819691 -2.92836755 1.27403004 0 0 Z " fill="#FFFFFF" transform="translate(131,20)"/>
<path d="M0 0 C5.31517849 0.32213203 8.47382789 3.30204002 12 7 C13.82192289 9.69644587 14.13092207 11.10912795 13.66015625 14.3125 C13.17741765 16.56762923 12.6283366 18.78148845 12 21 C8.83513029 21.99467334 7.44871324 22.20298932 4.375 20.8125 C1.95056171 18.96227078 0.57056791 17.60265539 -1 15 C-1.328125 12.08984375 -1.328125 12.08984375 -1.25 8.9375 C-1.23453125 7.89464844 -1.2190625 6.85179687 -1.203125 5.77734375 C-1 3 -1 3 0 0 Z " fill="#FFFFFF" transform="translate(67,19)"/>
<path d="M0 0 C5.32117481 2.35121678 8.86089246 5.18026734 12.375 9.8125 C13.37243393 13.30351874 13.16799705 16.56170868 12 20 C9.4375 22 9.4375 22 7 23 C-0.47406413 19.12455934 -0.47406413 19.12455934 -2 15 C-2.6580724 9.67735559 -2.04197653 4.9773178 0 0 Z " fill="#FFFFFF" transform="translate(71,55)"/>
<path d="M0 0 C1.91893686 0.72386942 3.81021223 1.52022489 5.6953125 2.328125 C4.55807838 7.16137001 1.75375567 9.41340408 -2.1484375 12.15625 C-5.39036165 13.9181653 -7.70532278 13.93933788 -11.3046875 13.328125 C-14.19712631 12.07054291 -15.76546397 11.19687402 -17.4296875 8.515625 C-17.21841579 4.81837013 -14.77046954 2.90859458 -12.3046875 0.328125 C-8.47107602 -1.58868074 -4.02371564 -1.17301541 0 0 Z " fill="#FFFFFF" transform="translate(170.3046875,76.671875)"/>
<path d="M0 0 C3.09657821 2.37184714 4.7373853 3.77446475 5.5625 7.625 C5 10 5 10 3.5625 11.8125 C-0.37210914 13.63585545 -3.75920564 13.98397516 -8 13 C-11.76323512 10.68902004 -15.33126459 8.07889485 -16.71875 3.765625 C-16.8115625 3.18296875 -16.904375 2.6003125 -17 2 C-6.05247659 -1.89881618 -6.05247659 -1.89881618 0 0 Z " fill="#FFFFFF" transform="translate(41,75)"/>
<path d="M0 0 C4.61586002 3.95645145 8.80181 7.69941512 13 12 C13.33 8.7 13.66 5.4 14 2 C13.34 1.67 12.68 1.34 12 1 C14.64 1 17.28 1 20 1 C19.34 1.66 18.68 2.32 18 3 C17.72345612 4.93681136 17.72345612 4.93681136 17.8046875 7.1328125 C17.81113281 7.93847656 17.81757812 8.74414062 17.82421875 9.57421875 C17.84097656 10.41597656 17.85773438 11.25773438 17.875 12.125 C17.88402344 12.97449219 17.89304687 13.82398438 17.90234375 14.69921875 C17.92594353 16.79959884 17.96181517 18.89983444 18 21 C14.09714233 19.41332422 11.66479018 16.86649519 8.75 13.875 C7.85796875 12.96492187 6.9659375 12.05484375 6.046875 11.1171875 C5.37140625 10.41851562 4.6959375 9.71984375 4 9 C3.67 12.3 3.34 15.6 3 19 C3.66 19 4.32 19 5 19 C5 19.66 5 20.32 5 21 C2.69 21 0.38 21 -2 21 C-2 20.34 -2 19.68 -2 19 C-1.34 19 -0.68 19 0 19 C0 12.73 0 6.46 0 0 Z " fill="#FFFFFF" transform="translate(96,159)"/>
<path d="M0 0 C2.22808159 -0.10853983 4.45769932 -0.18583307 6.6875 -0.25 C7.92886719 -0.29640625 9.17023437 -0.3428125 10.44921875 -0.390625 C14.5696687 0.06266982 16.10787892 1.10251321 19 4 C20.53214888 7.06429776 20.22938548 9.6165642 20 13 C18.7683795 15.77114613 17.83978036 17.43820249 15.3125 19.12890625 C12.20916563 20.29789876 9.55535712 20.19110714 6.25 20.125 C5.07953125 20.10695312 3.9090625 20.08890625 2.703125 20.0703125 C1.81109375 20.04710937 0.9190625 20.02390625 0 20 C0.495 18.515 0.495 18.515 1 17 C1.09599519 14.46742101 1.13937035 11.96907608 1.125 9.4375 C1.12886719 8.75236328 1.13273437 8.06722656 1.13671875 7.36132812 C1.18722618 3.55437812 1.18722618 3.55437812 0 0 Z M5 2 C5 7.28 5 12.56 5 18 C10.77717758 18.58290788 10.77717758 18.58290788 13.875 15.9375 C16.25807858 13.1098316 16.25807858 13.1098316 16.5625 9.4375 C16.23536931 6.01252376 16.23536931 6.01252376 14.4375 3.5625 C11.50035912 1.37038953 11.50035912 1.37038953 5 2 Z " fill="#FFFFFF" transform="translate(32,160)"/>
<path d="M0 0 C3.43370673 1.9524999 6.35454877 4.06060974 9 7 C8 10 8 10 6.24609375 11.16015625 C2.22114339 12.66513769 -1.78283316 12.70172566 -6 12 C-8.28473292 10.54607905 -9.34671154 9.20438462 -11 7 C-8.94515504 0.99353011 -6.38971568 -0.75173126 0 0 Z " fill="#FFFFFF" transform="translate(170,97)"/>
<path d="M0 0 C0.78246094 -0.01417969 1.56492187 -0.02835937 2.37109375 -0.04296875 C4.5625 0.1875 4.5625 0.1875 7.5625 2.1875 C8 4.5625 8 4.5625 7.5625 7.1875 C5.69222515 9.43182982 4.17363596 10.88193202 1.5625 12.1875 C-3.76593752 12.14562623 -8.07590347 11.42352323 -12.4375 8.1875 C-11.48328192 7.03823734 -10.52397955 5.89319459 -9.5625 4.75 C-9.02882813 4.11191406 -8.49515625 3.47382812 -7.9453125 2.81640625 C-5.44372656 0.11391574 -3.55153087 0.02915871 0 0 Z " fill="#FFFFFF" transform="translate(32.4375,95.8125)"/>
<path d="M0 0 C2 2 2 2 2 6 C1.34 6 0.68 6 0 6 C-0.598125 5.319375 -1.19625 4.63875 -1.8125 3.9375 C-3.84140179 1.68642782 -3.84140179 1.68642782 -6.625 2.125 C-9.14405125 2.86467913 -9.14405125 2.86467913 -11 5 C-12.16885197 9.3831949 -12.02892674 11.94214651 -10 16 C-7.69 16.33 -5.38 16.66 -3 17 C-2.34 15.02 -1.68 13.04 -1 11 C-1.66 10.67 -2.32 10.34 -3 10 C-0.36 10 2.28 10 5 10 C4.01 10.495 4.01 10.495 3 11 C3.103125 11.928125 3.20625 12.85625 3.3125 13.8125 C3 17 3 17 1 18.875 C-3.54072092 20.57777035 -7.69210492 20.78954305 -12.375 19.1875 C-14 18 -14 18 -16 15 C-16.70332744 10.17484666 -16.68928759 6.20625328 -14.25 1.9375 C-9.67031315 -2.00611923 -5.6880723 -1.00917412 0 0 Z " fill="#FFFFFF" transform="translate(172,160)"/>
<path d="M0 0 C9.87355719 0.62381952 9.87355719 0.62381952 14 4 C16.08202098 6.97431568 16.29069241 9.41479367 16 13 C14.43081508 14.56918492 12.85914841 14.28258943 10.6875 14.375 C7.26066706 14.31516641 6.32621541 14.25929943 3.5625 12.0625 C1.56351197 8.14448346 0.71500291 4.31824124 0 0 Z " fill="#FFFFFF" transform="translate(32,60)"/>
<path d="M0 0 C5.37743853 0.43019508 9.03291562 1.2218244 13 5 C13.90983408 8.00780443 14.2904177 10.86590897 14 14 C13.34 14.66 12.68 15.32 12 16 C8.01635851 15.92622886 5.74332398 15.60639588 2.625 13.0625 C0.3662705 8.80566363 0.18487775 4.76060208 0 0 Z " fill="#FFFFFF" transform="translate(35,34)"/>
<path d="M0 0 C8.92307692 3.6035503 8.92307692 3.6035503 11 6 C11.86694967 9.70672181 12.74424671 13.51150657 11 17 C4.64096386 17.48915663 4.64096386 17.48915663 1.625 15.1875 C-0.79484923 11.93001065 -1.13784656 9.31889403 -1.125 5.375 C-1.12757812 4.57835937 -1.13015625 3.78171875 -1.1328125 2.9609375 C-1 1 -1 1 0 0 Z " fill="#FFFFFF" transform="translate(59,34)"/>
<path d="M0 0 C-0.3846179 5.67311399 -0.82305585 8.82305585 -5 13 C-7.95664519 14.4783226 -10.74229737 14.06032783 -14 14 C-15.44430855 11.11138291 -15.37688506 9.20352299 -15 6 C-10.37970678 0.38072446 -7.06211863 -0.13324752 0 0 Z " fill="#FFFFFF" transform="translate(167,62)"/>
<path d="M0 0 C0.85900532 9.65903765 0.85900532 9.65903765 -2.125 13.625 C-5 16 -5 16 -8.1875 16.4375 C-11 16 -11 16 -13 15 C-13.60822898 7.82289803 -13.60822898 7.82289803 -10.875 4.125 C-7.46594421 1.60526311 -4.3041789 0 0 0 Z " fill="#FFFFFF" transform="translate(164,35)"/>
<path d="M0 0 C3.14485158 2.908974 4.57816232 6.15637915 6.1875 10.0625 C6.46013672 10.69994141 6.73277344 11.33738281 7.01367188 11.99414062 C9 16.71851504 9 16.71851504 9 19 C9.66 19 10.32 19 11 19 C11 19.66 11 20.32 11 21 C8.36 21 5.72 21 3 21 C3.33 20.01 3.66 19.02 4 18 C3.67 17.34 3.34 16.68 3 16 C1.02 16 -0.96 16 -3 16 C-3 17.65 -3 19.3 -3 21 C-5.31 21 -7.62 21 -10 21 C-10 19 -10 19 -8.61401367 17.61206055 C-8.08138916 17.08008057 -7.54876465 16.54810059 -7 16 C-5.9793666 14.19111876 -5.9793666 14.19111876 -5.17578125 12.20703125 C-4.71655273 11.1387207 -4.71655273 11.1387207 -4.24804688 10.04882812 C-3.93931641 9.31083984 -3.63058594 8.57285156 -3.3125 7.8125 C-2.99216797 7.06291016 -2.67183594 6.31332031 -2.34179688 5.54101562 C-1.55475259 3.69674768 -0.77650856 1.8487286 0 0 Z M0 8 C-0.66 9.65 -1.32 11.3 -2 13 C-0.68 13 0.64 13 2 13 C1.67 11.35 1.34 9.7 1 8 C0.67 8 0.34 8 0 8 Z " fill="#FFFFFF" transform="translate(81,159)"/>
<path d="M0 0 C0.66 0 1.32 0 2 0 C2.23187012 0.54003662 2.46374023 1.08007324 2.70263672 1.63647461 C3.75333124 4.07313025 4.81401404 6.505309 5.875 8.9375 C6.23980469 9.78763672 6.60460937 10.63777344 6.98046875 11.51367188 C7.33496094 12.32255859 7.68945312 13.13144531 8.0546875 13.96484375 C8.37937012 14.7137085 8.70405273 15.46257324 9.03857422 16.23413086 C9.87847692 18.1774471 9.87847692 18.1774471 12 19 C12 19.66 12 20.32 12 21 C9.36 21 6.72 21 4 21 C4 19.02 4 17.04 4 15 C1.69 15 -0.62 15 -3 15 C-3 16.98 -3 18.96 -3 21 C-4.98 21 -6.96 21 -9 21 C-9 20.34 -9 19.68 -9 19 C-8.34 19 -7.68 19 -7 19 C-6.82984375 18.46632812 -6.6596875 17.93265625 -6.484375 17.3828125 C-4.56536676 11.4828829 -2.35945761 5.73695531 0 0 Z M0 7 C-0.66 8.98 -1.32 10.96 -2 13 C-0.35 13 1.3 13 3 13 C2.34 11.02 1.68 9.04 1 7 C0.67 7 0.34 7 0 7 Z " fill="#FFFFFF" transform="translate(143,159)"/>
<path d="M0 0 C0.66 0 1.32 0 2 0 C2.23187012 0.54003662 2.46374023 1.08007324 2.70263672 1.63647461 C3.75333124 4.07313025 4.81401404 6.505309 5.875 8.9375 C6.23980469 9.78763672 6.60460938 10.63777344 6.98046875 11.51367188 C7.33496094 12.32255859 7.68945312 13.13144531 8.0546875 13.96484375 C8.37937012 14.7137085 8.70405273 15.46257324 9.03857422 16.23413086 C9.87847692 18.1774471 9.87847692 18.1774471 12 19 C12 19.66 12 20.32 12 21 C9.36 21 6.72 21 4 21 C4 19.02 4 17.04 4 15 C1.69 15 -0.62 15 -3 15 C-3 16.98 -3 18.96 -3 21 C-4.98 21 -6.96 21 -9 21 C-9 20.34 -9 19.68 -9 19 C-8.34 19 -7.68 19 -7 19 C-6.82984375 18.46632812 -6.6596875 17.93265625 -6.484375 17.3828125 C-4.56536676 11.4828829 -2.35945761 5.73695531 0 0 Z M0 7 C-0.66 8.98 -1.32 10.96 -2 13 C-0.35 13 1.3 13 3 13 C2.34 11.02 1.68 9.04 1 7 C0.67 7 0.34 7 0 7 Z " fill="#FFFFFF" transform="translate(18,159)"/>
<path d="M0 0 C1.9375 0.6875 1.9375 0.6875 2.9375 2.6875 C3.51288625 9.70721231 3.51288625 9.70721231 1.25 13.5625 C-1.12808478 15.7477671 -2.99382365 16.74984889 -6.0625 17.6875 C-8.49837078 13.40036742 -8.81063848 9.53258731 -8.0625 4.6875 C-5.8852657 1.78452094 -3.81071519 -0.57738109 0 0 Z " fill="#FFFFFF" transform="translate(72.0625,104.3125)"/>
<path d="M0 0 C0 1.65 0 3.3 0 5 C-0.66 5 -1.32 5 -2 5 C-2 4.34 -2 3.68 -2 3 C-3.98 3 -5.96 3 -8 3 C-8 5.31 -8 7.62 -8 10 C-6.02 9.34 -4.04 8.68 -2 8 C-2 9.98 -2 11.96 -2 14 C-2.33 13.34 -2.66 12.68 -3 12 C-4.65 12 -6.3 12 -8 12 C-8 14.31 -8 16.62 -8 19 C-4.59687262 17.94124926 -1.98646769 16.99097846 1 15 C0.67 16.98 0.34 18.96 0 21 C-4.29 21 -8.58 21 -13 21 C-12.505 19.515 -12.505 19.515 -12 18 C-11.90400481 15.46742101 -11.86062965 12.96907608 -11.875 10.4375 C-11.87113281 9.75236328 -11.86726562 9.06722656 -11.86328125 8.36132812 C-11.81277382 4.55437812 -11.81277382 4.55437812 -13 1 C-11.20843648 0.83222817 -9.4167455 0.66581706 -7.625 0.5 C-6.62726563 0.4071875 -5.62953125 0.314375 -4.6015625 0.21875 C-2 0 -2 0 0 0 Z " fill="#FFFFFF" transform="translate(192,159)"/>
<path d="M0 0 C2.64 0 5.28 0 8 0 C8.103125 0.680625 8.20625 1.36125 8.3125 2.0625 C9.14725019 5.62915989 10.49472754 8.66222194 12 12 C12.67354499 10.56570999 13.33859701 9.12742943 14 7.6875 C14.37125 6.88699219 14.7425 6.08648437 15.125 5.26171875 C16.18040667 2.93786041 16.18040667 2.93786041 16 0 C17.98 0 19.96 0 22 0 C18.66666667 6.66666667 15.33333333 13.33333333 12 20 C8.56178346 17.23470658 7.16718112 13.36926978 5.4375 9.4375 C3.30932811 4.34563727 3.30932811 4.34563727 0 0 Z " fill="#FFFFFF" transform="translate(52,160)"/>
<path d="M0 0 C5.61 0 11.22 0 17 0 C17 1.65 17 3.3 17 5 C14.69 4.34 12.38 3.68 10 3 C10 8.28 10 13.56 10 19 C10.66 19 11.32 19 12 19 C12 19.66 12 20.32 12 21 C9.69 21 7.38 21 5 21 C5.33 20.01 5.66 19.02 6 18 C6.22718496 15.43365139 6.41608184 12.88321893 6.5625 10.3125 C6.62727539 9.2596582 6.62727539 9.2596582 6.69335938 8.18554688 C6.7991736 6.45724794 6.90006581 4.7286489 7 3 C5.02 3 3.04 3 1 3 C0.67 3.66 0.34 4.32 0 5 C0 3.35 0 1.7 0 0 Z " fill="#FFFFFF" transform="translate(118,159)"/>
<path d="M0 0 C2.27751344 1.47368516 4.02007 3.11435238 6 5 C4.64775615 6.94385053 3.42479867 7.87012525 1.16015625 8.5625 C-2.57611821 9.23043733 -4.30709448 9.45630364 -7.5625 7.3125 C-9 5 -9 5 -8.875 2.8125 C-7.0711368 -0.92407377 -3.6992712 -0.42683899 0 0 Z " fill="#FFFFFF" transform="translate(154,91)"/>
<path d="M0 0 C0.6875 2.3125 0.6875 2.3125 1 5 C0 6.8125 0 6.8125 -2 8 C-6.24881273 8.3862557 -9.35969312 8.3297964 -13 6 C-11.97431136 3.29591177 -11.02736589 2.02204475 -8.75 0.1875 C-5.38129749 -1.26716699 -3.50164762 -0.89577032 0 0 Z " fill="#FFFFFF" transform="translate(53,90)"/>
<path d="M0 0 C0.33 1.32 0.66 2.64 1 4 C-0.625 5.5625 -0.625 5.5625 -3 7 C-6.01733125 6.7586135 -8.29283042 6.35358479 -11 5 C-10.03558469 2.58896173 -9.31202953 1.22595242 -7.1875 -0.3125 C-4.45808824 -1.17031512 -2.72321308 -0.75644808 0 0 Z " fill="#FFFFFF" transform="translate(29,88)"/>
<path d="M0 0 C2.375 0.625 2.375 0.625 5 2 C6.69835501 5.62830387 7.28163292 7.15510125 6 11 C1.25 10.25 1.25 10.25 -1 8 C-1.1875 4.4375 -1.1875 4.4375 -1 1 C-0.67 0.67 -0.34 0.34 0 0 Z " fill="#FFFFFF" transform="translate(56,22)"/>
<path d="M0 0 C4.875 1.75 4.875 1.75 6 4 C6.04022391 6.3329866 6.04320247 8.66706666 6 11 C0.25 9.375 0.25 9.375 -2 6 C-1.45945946 1.45945946 -1.45945946 1.45945946 0 0 Z " fill="#FFFFFF" transform="translate(139,114)"/>
<path d="M0 0 C2 2 2 2 2 5 C-1.01324195 6.50662097 -3.68286377 6.17770373 -7 6 C-7.66 5.34 -8.32 4.68 -9 4 C-9 2.68 -9 1.36 -9 0 C-5.88135455 -1.55932272 -3.33704665 -0.65549131 0 0 Z " fill="#FFFFFF" transform="translate(179,90)"/>
<path d="M0 0 C2.875 -0.125 2.875 -0.125 6 0 C6.66 0.66 7.32 1.32 8 2 C7.44444444 6.55555556 7.44444444 6.55555556 6 8 C3.5625 8.1875 3.5625 8.1875 1 8 C0.34 7.34 -0.32 6.68 -1 6 C-0.625 2.875 -0.625 2.875 0 0 Z " fill="#FFFFFF" transform="translate(97,42)"/>
<path d="M0 0 C0.78375 0.04125 1.5675 0.0825 2.375 0.125 C2.625 3.4375 2.625 3.4375 2.375 7.125 C0.5625 9.0625 0.5625 9.0625 -1.625 10.125 C-2.615 10.125 -3.605 10.125 -4.625 10.125 C-4.8203125 4.0703125 -4.8203125 4.0703125 -4.625 2.125 C-2.625 0.125 -2.625 0.125 0 0 Z " fill="#FFFFFF" transform="translate(59.625,112.875)"/>
<path d="M0 0 C5.75 1.75 5.75 1.75 8 4 C8.125 6.625 8.125 6.625 8 9 C6.25 9.75 6.25 9.75 4 10 C1.75 8.4375 1.75 8.4375 0 6 C-0.25 2.75 -0.25 2.75 0 0 Z " fill="#FFFFFF" transform="translate(38,50)"/>
<path d="M0 0 C0 2.97 0 5.94 0 9 C-1.65 9.66 -3.3 10.32 -5 11 C-7 9 -7 9 -7.375 6.625 C-6.73723148 2.16062034 -4.48956857 0 0 0 Z " fill="#FFFFFF" transform="translate(144,24)"/>
<path d="M0 0 C4.75 0.75 4.75 0.75 7 3 C7.125 6.125 7.125 6.125 7 9 C6.01 9.33 5.02 9.66 4 10 C2 8.375 2 8.375 0 6 C-0.25 2.75 -0.25 2.75 0 0 Z " fill="#FFFFFF" transform="translate(50,36)"/>
<path d="M0 0 C0.125 3.375 0.125 3.375 0 7 C-2 9 -2 9 -4.625 9.125 C-5.40875 9.08375 -6.1925 9.0425 -7 9 C-7.25 6.1875 -7.25 6.1875 -7 3 C-4.54157496 0.45680168 -3.57478534 0 0 0 Z " fill="#FFFFFF" transform="translate(161,52)"/>
<path d="M0 0 C2.46800047 1.15173355 4.04783565 2.04783565 6 4 C5.625 6.625 5.625 6.625 5 9 C4.01 9.33 3.02 9.66 2 10 C0.5 8.875 0.5 8.875 -1 7 C-1.25 3.875 -1.25 3.875 -1 1 C-0.67 0.67 -0.34 0.34 0 0 Z " fill="#FFFFFF" transform="translate(84,10)"/>
<path d="M0 0 C4.875 2.875 4.875 2.875 6 4 C6.04080783 5.99958364 6.04254356 8.00045254 6 10 C3.625 9.6875 3.625 9.6875 1 9 C-1 6 -1 6 -0.625 2.8125 C-0.41875 1.884375 -0.2125 0.95625 0 0 Z " fill="#FFFFFF" transform="translate(85,75)"/>
<path d="M0 0 C0.09765625 6.15234375 0.09765625 6.15234375 0 8 C-1 9 -1 9 -3.5625 9.0625 C-4.366875 9.041875 -5.17125 9.02125 -6 9 C-6.36521739 3.52173913 -6.36521739 3.52173913 -4.6875 1.125 C-3 0 -3 0 0 0 Z " fill="#FFFFFF" transform="translate(116,12)"/>
<path d="M0 0 C0.66 0 1.32 0 2 0 C2 0.66 2 1.32 2 2 C2.66 2 3.32 2 4 2 C4 1.34 4 0.68 4 0 C4.99 0 5.98 0 7 0 C7 2.64 7 5.28 7 8 C6.34 8 5.68 8 5 8 C4.67 7.34 4.34 6.68 4 6 C3.34 6 2.68 6 2 6 C2 6.66 2 7.32 2 8 C1.34 8 0.68 8 0 8 C0 5.36 0 2.72 0 0 Z " fill="#FFFFFF" transform="translate(179,186)"/>
<path d="M0 0 C1.65 0 3.3 0 5 0 C7 5.75 7 5.75 7 8 C6.01 8 5.02 8 4 8 C3.67 7.34 3.34 6.68 3 6 C2.67 6.66 2.34 7.32 2 8 C1.34 8 0.68 8 0 8 C0 5.36 0 2.72 0 0 Z " fill="#FFFFFF" transform="translate(62,186)"/>
<path d="M0 0 C1.66611905 -0.042721 3.33382885 -0.04063832 5 0 C6 1 6 1 6.0625 3.5625 C6.041875 4.366875 6.02125 5.17125 6 6 C4.1875 6.625 4.1875 6.625 2 7 C1.01 6.34 0.02 5.68 -1 5 C-0.67 3.35 -0.34 1.7 0 0 Z " fill="#FFFFFF" transform="translate(79,47)"/>
<path d="M0 0 C2.475 0.495 2.475 0.495 5 1 C5.33 2.98 5.66 4.96 6 7 C4.02 7.33 2.04 7.66 0 8 C0 5.36 0 2.72 0 0 Z " fill="#FFFFFF" transform="translate(9,186)"/>
<path d="M0 0 C1.67542976 0.28604898 3.34385343 0.61781233 5 1 C5 2.98 5 4.96 5 7 C2.625 7.625 2.625 7.625 0 8 C-0.66 7.34 -1.32 6.68 -2 6 C-1.44444444 1.44444444 -1.44444444 1.44444444 0 0 Z M1 2 C1 3.32 1 4.64 1 6 C1.66 5.67 2.32 5.34 3 5 C2.67 4.01 2.34 3.02 2 2 C1.67 2 1.34 2 1 2 Z " fill="#FFFFFF" transform="translate(55,186)"/>
<path d="M0 0 C2.0625 0.4375 2.0625 0.4375 4 1 C4.33 2.98 4.66 4.96 5 7 C1.25 8.125 1.25 8.125 -1 7 C-1.04254356 5.00045254 -1.04080783 2.99958364 -1 1 C-0.67 0.67 -0.34 0.34 0 0 Z " fill="#FFFFFF" transform="translate(157,186)"/>
<path d="M0 0 C2.125 0.375 2.125 0.375 4 1 C4 2.98 4 4.96 4 7 C0.25 8.125 0.25 8.125 -2 7 C-2.125 4.625 -2.125 4.625 -2 2 C-1.34 1.34 -0.68 0.68 0 0 Z " fill="#FFFFFF" transform="translate(143,186)"/>
<path d="M0 0 C1.65 0 3.3 0 5 0 C4.979375 0.763125 4.95875 1.52625 4.9375 2.3125 C4.87057159 5.10185786 4.87057159 5.10185786 6 8 C4.02 8 2.04 8 0 8 C0 5.36 0 2.72 0 0 Z " fill="#FFFFFF" transform="translate(171,186)"/>
<path d="M0 0 C0.66 0 1.32 0 2 0 C2 0.99 2 1.98 2 3 C2.66 3 3.32 3 4 3 C4 2.01 4 1.02 4 0 C4.66 0 5.32 0 6 0 C6 2.64 6 5.28 6 8 C5.34 8 4.68 8 4 8 C4 7.01 4 6.02 4 5 C3.34 5 2.68 5 2 5 C2 5.99 2 6.98 2 8 C1.34 8 0.68 8 0 8 C0 5.36 0 2.72 0 0 Z " fill="#FFFFFF" transform="translate(129,186)"/>
<path d="M0 0 C0.66 0 1.32 0 2 0 C3.76462683 3.08809695 4 4.23312136 4 8 C3.34 8 2.68 8 2 8 C2 7.34 2 6.68 2 6 C0.35 6.66 -1.3 7.32 -3 8 C-2.45276317 4.62537285 -1.9451 2.91765 0 0 Z " fill="#FFFFFF" transform="translate(109,186)"/>
<path d="M0 0 C1.65 0 3.3 0 5 0 C4.979375 0.763125 4.95875 1.52625 4.9375 2.3125 C4.87057159 5.10185786 4.87057159 5.10185786 6 8 C4.02 8 2.04 8 0 8 C0 5.36 0 2.72 0 0 Z " fill="#FFFFFF" transform="translate(99,186)"/>
<path d="M0 0 C0.66 0 1.32 0 2 0 C2 0.99 2 1.98 2 3 C2.66 3 3.32 3 4 3 C4 2.01 4 1.02 4 0 C4.66 0 5.32 0 6 0 C6 2.64 6 5.28 6 8 C5.34 8 4.68 8 4 8 C4 7.01 4 6.02 4 5 C3.34 5 2.68 5 2 5 C2 5.99 2 6.98 2 8 C1.34 8 0.68 8 0 8 C0 5.36 0 2.72 0 0 Z " fill="#FFFFFF" transform="translate(91,186)"/>
<path d="M0 0 C0.66 0 1.32 0 2 0 C2 0.99 2 1.98 2 3 C2.66 3 3.32 3 4 3 C4 2.01 4 1.02 4 0 C4.66 0 5.32 0 6 0 C6 2.64 6 5.28 6 8 C5.34 8 4.68 8 4 8 C4 7.01 4 6.02 4 5 C3.34 5 2.68 5 2 5 C2 5.99 2 6.98 2 8 C1.34 8 0.68 8 0 8 C0 5.36 0 2.72 0 0 Z " fill="#FFFFFF" transform="translate(24,186)"/>
<path d="M0 0 C0.66 0 1.32 0 2 0 C3.76462683 3.08809695 4 4.23312136 4 8 C3.34 8 2.68 8 2 8 C2 7.34 2 6.68 2 6 C0.35 6.66 -1.3 7.32 -3 8 C-1.125 1.125 -1.125 1.125 0 0 Z " fill="#FFFFFF" transform="translate(35,186)"/>
<path d="M0 0 C0.66 0 1.32 0 2 0 C3.25664978 2.90600261 4 4.79604584 4 8 C3.34 8 2.68 8 2 8 C2 7.34 2 6.68 2 6 C1.01 6 0.02 6 -1 6 C-1 6.66 -1 7.32 -1 8 C-1.66 8 -2.32 8 -3 8 C-2.45276317 4.62537285 -1.9451 2.91765 0 0 Z " fill="#FFFFFF" transform="translate(73,186)"/>
<path d="M0 0 C1.65 0 3.3 0 5 0 C5 2.64 5 5.28 5 8 C3.35 8 1.7 8 0 8 C0 5.36 0 2.72 0 0 Z " fill="#FFFFFF" transform="translate(17,186)"/>
<path d="M0 0 C1.32 0.33 2.64 0.66 4 1 C4 2.98 4 4.96 4 7 C2.125 7.625 2.125 7.625 0 8 C-0.66 7.34 -1.32 6.68 -2 6 C-1.34 4.02 -0.68 2.04 0 0 Z " fill="#FFFFFF" transform="translate(189,186)"/>
<path d="M0 0 C1.32 0.33 2.64 0.66 4 1 C4.99 0.67 5.98 0.34 7 0 C6.34 2.64 5.68 5.28 5 8 C4.01 8 3.02 8 2 8 C1.34 5.36 0.68 2.72 0 0 Z " fill="#FFFFFF" transform="translate(148,186)"/>
<path d="M0 0 C0.66 0 1.32 0 2 0 C2.33 0.66 2.66 1.32 3 2 C4.32 1.34 5.64 0.68 7 0 C6.1875 3.4375 6.1875 3.4375 5 7 C4.01 7.33 3.02 7.66 2 8 C0.74335022 5.09399739 0 3.20395416 0 0 Z " fill="#FFFFFF" transform="translate(40,186)"/>
<path d="M0 0 C1.98 0 3.96 0 6 0 C6 0.66 6 1.32 6 2 C5.34 2 4.68 2 4 2 C4 3.98 4 5.96 4 8 C3.34 8 2.68 8 2 8 C2 6.02 2 4.04 2 2 C1.34 2 0.68 2 0 2 C0 1.34 0 0.68 0 0 Z " fill="#FFFFFF" transform="translate(163,186)"/>
<path d="M0 0 C1.98 0 3.96 0 6 0 C6 0.66 6 1.32 6 2 C5.34 2 4.68 2 4 2 C4 3.98 4 5.96 4 8 C3.34 8 2.68 8 2 8 C2 6.02 2 4.04 2 2 C1.34 2 0.68 2 0 2 C0 1.34 0 0.68 0 0 Z " fill="#FFFFFF" transform="translate(121,186)"/>
<path d="M0 0 C0.66 0 1.32 0 2 0 C2 1.98 2 3.96 2 6 C2.99 6 3.98 6 5 6 C5 6.66 5 7.32 5 8 C3.35 8 1.7 8 0 8 C0 5.36 0 2.72 0 0 Z " fill="#FFFFFF" transform="translate(115,186)"/>
<path d="M0 0 C0.66 0 1.32 0 2 0 C2 1.98 2 3.96 2 6 C2.99 6 3.98 6 5 6 C5 6.66 5 7.32 5 8 C3.35 8 1.7 8 0 8 C0 5.36 0 2.72 0 0 Z " fill="#FFFFFF" transform="translate(79,186)"/>
<path d="M0 0 C0.66 0 1.32 0 2 0 C2 2.64 2 5.28 2 8 C1.34 8 0.68 8 0 8 C0 5.36 0 2.72 0 0 Z " fill="#FFFFFF" transform="translate(49,186)"/>
</svg>
