<?xml version="1.0" standalone="no"?>
<!DOCTYPE svg PUBLIC "-//W3C//DTD SVG 20010904//EN"
 "http://www.w3.org/TR/2001/REC-SVG-20010904/DTD/svg10.dtd">
<svg version="1.0" xmlns="http://www.w3.org/2000/svg"
 width="225.000000pt" height="225.000000pt" viewBox="0 0 225.000000 225.000000"
 preserveAspectRatio="xMidYMid meet">
<metadata>
Created by potrace 1.10, written by Peter Selinger 2001-2011
</metadata>
<g transform="translate(0.000000,225.000000) scale(0.100000,-0.100000)"
fill="#000000" stroke="none">
<path d="M1025 2160 c-4 -7 -3 -16 3 -22 14 -14 45 -2 40 15 -6 16 -34 21 -43
7z"/>
<path d="M985 2101 c-4 -7 7 -11 29 -11 l36 0 0 -49 c0 -49 -1 -50 -32 -53
-38 -3 -36 -24 2 -21 14 1 42 3 63 4 39 3 53 26 15 25 -21 -1 -24 5 -28 54
l-5 55 -37 3 c-20 2 -39 -2 -43 -7z"/>
<path d="M1194 2102 c-38 -25 -44 -90 -11 -120 28 -26 64 -28 96 -6 32 23 7
37 -29 16 -22 -13 -31 -14 -43 -4 -21 18 -26 58 -10 82 19 27 41 25 55 -5 13
-29 33 -33 43 -8 13 35 -65 69 -101 45z"/>
<path d="M832 2078 c-28 -28 -3 -71 40 -68 43 4 58 0 58 -15 0 -9 -12 -20 -26
-25 -32 -13 -30 -13 -49 6 -20 21 -29 12 -21 -19 6 -24 8 -24 48 -14 56 13 70
25 66 56 -3 23 -8 26 -50 29 -41 3 -48 6 -48 24 0 17 5 19 28 16 15 -3 35 -8
44 -12 13 -6 15 -3 11 13 -4 17 -13 21 -47 21 -23 0 -47 -5 -54 -12z"/>
<path d="M1434 2035 c-53 -53 -6 -151 62 -128 36 12 29 29 -9 25 -34 -4 -57
13 -57 43 0 48 71 74 78 28 3 -24 28 -38 38 -22 11 19 -5 56 -31 67 -38 17
-53 15 -81 -13z"/>
<path d="M720 2038 c-40 -11 -60 -25 -60 -42 0 -7 6 -20 13 -29 10 -14 18 -15
50 -6 29 8 42 7 54 -2 13 -12 13 -15 -7 -31 -24 -20 -55 -24 -65 -8 -15 24
-24 7 -10 -19 l15 -29 37 19 c46 23 63 44 56 69 -7 25 -34 33 -68 20 -29 -11
-45 -6 -45 15 0 18 49 29 66 14 11 -9 14 -7 14 9 0 28 -8 31 -50 20z"/>
<path d="M1652 2013 c2 -10 10 -18 18 -18 8 0 16 8 18 18 2 12 -3 17 -18 17
-15 0 -20 -5 -18 -17z"/>
<path d="M1586 1996 c3 -7 16 -18 30 -25 26 -12 25 -18 -14 -79 -14 -21 -16
-22 -38 -7 -28 18 -47 20 -42 4 2 -7 22 -19 45 -28 23 -9 50 -25 62 -35 12
-11 24 -16 29 -12 4 4 -5 18 -19 30 l-25 22 22 39 c31 53 30 62 -8 85 -39 23
-49 25 -42 6z"/>
<path d="M536 1939 c-17 -14 -26 -29 -24 -43 4 -28 34 -28 31 1 -3 25 21 48
42 39 23 -8 18 -25 -15 -56 -32 -30 -37 -49 -18 -68 19 -19 45 -14 75 13 16
14 37 32 48 39 11 8 16 18 12 22 -4 5 -12 3 -16 -4 -6 -9 -16 -2 -36 25 -46
61 -58 65 -99 32z m90 -83 c-7 -28 -42 -44 -59 -27 -8 8 -3 19 18 41 32 33 51
27 41 -14z"/>
<path d="M1756 1900 c5 -25 2 -31 -19 -41 -24 -11 -47 -46 -47 -73 0 -8 11
-21 25 -30 20 -13 29 -14 50 -4 32 14 33 32 1 26 -42 -8 -54 7 -30 38 32 44
50 51 73 29 27 -24 40 -11 16 15 -18 20 -18 21 5 45 22 24 22 25 4 25 -11 0
-25 -5 -32 -12 -9 -9 -15 -9 -24 0 -20 20 -28 14 -22 -18z"/>
<path d="M1126 1865 c3 -6 -5 -17 -18 -23 -13 -6 -17 -11 -10 -11 21 -1 52 18
52 33 0 7 -6 13 -14 13 -8 0 -12 -6 -10 -12z"/>
<path d="M988 1846 c-9 -9 -20 -25 -23 -36 -5 -16 -12 -19 -28 -14 -18 6 -20
4 -10 -7 15 -19 -7 -50 -33 -46 -27 4 -45 17 -39 27 6 10 -1 15 -37 24 -27 6
-28 5 -27 -31 1 -21 4 -29 6 -17 6 31 40 38 49 11 5 -15 0 -26 -17 -41 -16
-13 -18 -17 -6 -13 9 4 17 2 17 -3 0 -6 6 -10 13 -10 7 0 23 -13 35 -30 13
-16 30 -30 38 -30 10 0 5 9 -15 25 -16 14 -33 35 -36 46 -4 10 -11 17 -16 14
-5 -3 -6 1 -3 9 4 9 15 13 32 10 51 -9 61 -15 81 -49 11 -19 25 -35 31 -35 10
0 -42 84 -57 92 -5 3 -2 3 6 1 8 -2 11 2 8 12 -4 8 0 21 8 29 8 8 15 19 15 25
0 6 9 15 19 20 15 9 20 7 25 -12 4 -14 0 -26 -11 -34 -15 -12 -15 -13 3 -14
10 0 13 -3 7 -6 -18 -6 -16 -23 1 -23 8 0 17 -12 21 -27 7 -32 44 -85 45 -64
0 7 6 11 15 7 11 -4 15 2 15 27 0 32 0 32 -13 8 -6 -13 -16 -24 -22 -25 -13
-1 -44 93 -39 119 3 11 -6 33 -19 49 -21 26 -24 27 -39 12z"/>
<path d="M332 1827 c-32 -34 -28 -58 4 -25 l27 26 58 -46 c32 -26 58 -52 58
-58 1 -6 -8 -19 -19 -29 -14 -13 -17 -22 -10 -29 11 -11 109 88 110 112 0 20
-17 14 -37 -13 l-18 -26 -67 56 c-37 30 -71 55 -76 55 -5 0 -18 -10 -30 -23z"/>
<path d="M1152 1824 c5 -20 -13 -44 -33 -44 -6 0 -8 -7 -5 -16 3 -9 6 -20 6
-25 0 -6 4 -8 9 -5 5 3 8 0 7 -7 0 -6 3 -13 9 -14 5 -1 8 10 7 26 -2 16 1 32
7 36 15 8 14 52 -1 61 -7 5 -9 1 -6 -12z"/>
<path d="M1317 1811 c-15 -15 -27 -34 -26 -42 0 -8 5 -4 11 9 6 12 17 23 25
23 26 3 31 4 37 10 4 3 1 11 -6 17 -10 8 -20 3 -41 -17z"/>
<path d="M1256 1785 c-3 -8 -13 -15 -22 -15 -12 0 -15 -6 -11 -27 6 -31 -33
-118 -41 -93 -7 21 -28 40 -44 40 -7 0 -2 -7 10 -16 12 -8 22 -22 22 -30 0
-22 -18 -17 -26 8 l-7 23 -9 -24 c-7 -20 -13 -23 -43 -18 -19 3 -37 1 -40 -4
-8 -11 -48 -12 -60 0 -6 4 -18 0 -28 -11 -18 -19 -17 -19 20 -11 21 4 88 7
149 7 l112 -1 7 73 c4 48 11 74 21 78 15 6 20 36 5 36 -5 0 -11 -7 -15 -15z"/>
<path d="M1339 1760 c-14 -14 -31 -46 -39 -73 -12 -44 -30 -72 -30 -48 0 22
-15 10 -16 -13 -2 -21 4 -25 45 -32 25 -5 52 -8 59 -7 7 1 11 -2 8 -5 -3 -3
-1 -11 4 -17 15 -18 -16 -43 -33 -26 -9 10 -8 11 4 6 10 -4 20 -2 23 3 5 8
-29 21 -104 38 -14 4 -70 8 -125 11 -78 4 -121 0 -194 -16 -52 -12 -97 -19
-99 -16 -3 3 0 5 6 5 6 0 9 7 5 15 -3 9 3 25 12 35 10 11 13 20 7 20 -6 0 -12
-5 -14 -12 -5 -15 -55 20 -63 44 -4 12 -14 15 -36 13 -33 -5 -50 18 -31 37 9
9 17 7 32 -7 18 -16 20 -16 20 -2 0 18 -60 49 -72 38 -4 -3 -3 -22 1 -41 5
-26 13 -36 29 -38 12 -2 35 -21 53 -43 17 -21 34 -37 39 -34 4 3 6 -4 3 -15
-12 -45 1 -50 74 -30 67 18 109 25 211 35 42 4 52 2 52 -11 0 -9 -5 -13 -12
-9 -7 4 -4 -1 6 -9 25 -20 14 -20 -24 -1 -20 10 -30 12 -30 4 0 -6 9 -13 20
-16 11 -3 18 -9 15 -13 -5 -8 19 -22 40 -24 14 -2 34 26 28 40 -3 8 3 11 14
10 10 -2 12 -1 6 1 -7 3 -13 9 -13 14 0 12 18 10 60 -7 31 -12 32 -14 8 -10
-33 4 -37 -9 -8 -24 28 -15 25 -30 -6 -30 -14 0 -23 -4 -20 -9 8 -12 56 -20
56 -9 0 5 7 3 15 -5 8 -9 20 -17 27 -20 7 -2 11 -7 8 -10 -3 -3 -24 0 -45 8
-50 18 -89 19 -79 3 5 -8 2 -9 -10 -5 -10 4 -21 7 -24 7 -4 0 0 5 8 10 29 19
-160 11 -240 -10 -73 -19 -105 -19 -59 -1 13 5 19 10 12 10 -6 1 -13 11 -15
22 -2 12 -14 26 -27 30 -18 7 -22 6 -18 -5 3 -8 1 -17 -6 -20 -18 -7 12 -26
31 -19 12 5 12 2 3 -15 -6 -11 -11 -26 -11 -32 0 -20 64 -38 186 -51 122 -13
195 -7 281 23 29 11 31 14 31 61 1 35 6 53 16 59 9 5 16 15 16 23 0 22 60 85
81 85 30 0 64 90 39 105 -6 3 -10 1 -10 -4 0 -6 -7 -11 -16 -11 -14 0 -14 -2
1 -17 16 -15 15 -17 -6 -29 -13 -7 -27 -10 -31 -8 -5 3 -8 -3 -8 -13 -1 -21
-46 -57 -60 -48 -14 9 -12 25 5 59 12 23 13 32 3 45 -11 14 -11 14 4 3 14 -11
19 -10 37 9 15 16 18 26 10 33 -7 8 -13 6 -20 -6 -6 -10 -19 -18 -30 -18 -14
0 -19 -6 -18 -17 3 -23 -31 -93 -45 -93 -27 1 -44 45 -24 61 5 3 9 17 10 32 1
15 8 27 14 27 17 0 39 30 28 38 -5 4 -21 -4 -35 -18z m-59 -340 c10 -6 3 -11
-25 -18 -91 -23 -92 -23 -98 -2 -6 22 -27 28 -27 8 0 -9 -4 -8 -10 2 -8 13
-10 13 -10 -2 0 -9 10 -18 23 -21 20 -4 19 -4 -4 -6 -21 -1 -28 4 -31 24 -3
13 -4 26 -2 28 7 7 169 -5 184 -13z"/>
<path d="M1845 1771 c7 -22 -45 -88 -79 -101 -29 -10 -50 -2 -36 15 10 12 4
45 -9 45 -12 0 -28 -15 -34 -34 -14 -37 9 -46 114 -46 59 0 99 -4 99 -10 0 -5
5 -10 10 -10 15 0 12 33 -4 56 -14 18 -15 18 -21 2 -5 -12 -18 -18 -41 -18
-19 0 -34 4 -34 8 0 17 43 47 62 44 11 -2 18 0 16 5 -21 45 -33 63 -40 63 -5
0 -7 -9 -3 -19z"/>
<path d="M301 1674 c-32 -41 -28 -78 13 -103 42 -26 57 -26 90 0 30 24 38 89
11 89 -11 0 -15 -11 -15 -39 0 -44 -23 -61 -59 -41 -47 25 -44 80 5 80 19 0
25 5 22 18 -5 28 -43 26 -67 -4z"/>
<path d="M980 1531 c0 -5 -10 -12 -22 -14 -20 -4 -20 -4 4 -6 15 0 32 -9 38
-18 11 -17 11 -17 6 0 -3 11 0 20 9 23 24 9 17 24 -10 24 -14 0 -25 -4 -25 -9z"/>
<path d="M792 1263 c-10 -4 -5 -14 18 -34 17 -16 33 -29 36 -29 9 0 45 -34
137 -131 56 -59 60 -70 30 -75 -24 -4 -32 11 -10 19 6 2 1 4 -13 4 -14 0 -52
3 -85 6 -40 5 -53 4 -40 -2 11 -5 34 -10 52 -10 38 -1 53 -18 21 -24 -22 -4
41 -11 68 -8 7 1 14 -7 16 -17 3 -11 0 -19 -7 -19 -20 0 -75 -25 -75 -34 0 -5
-8 -6 -17 -3 -14 5 -15 4 -4 -4 17 -12 6 -33 -14 -25 -19 7 -111 -67 -96 -77
14 -8 -24 -45 -46 -45 -17 0 -41 -31 -31 -40 11 -12 80 25 85 45 3 11 10 20
15 20 6 0 36 22 67 48 89 76 131 98 131 70 0 -7 -12 -20 -28 -29 -18 -11 -44
-49 -79 -120 -62 -124 -70 -148 -52 -160 11 -8 11 -11 -4 -20 -37 -22 -44 -99
-8 -99 13 -1 12 -3 -4 -12 -27 -15 -65 -50 -65 -60 0 -15 25 -7 52 17 37 32
68 85 68 116 0 14 9 43 19 65 25 52 30 80 12 76 -11 -2 -10 2 3 22 9 14 16 32
16 40 0 9 9 40 21 71 18 49 23 55 49 55 19 0 33 -7 40 -21 12 -22 4 -42 -9
-21 -5 9 -14 6 -34 -12 -24 -22 -39 -54 -19 -43 4 3 6 -18 5 -46 0 -29 -2 -67
-2 -84 -1 -18 -6 -33 -12 -33 -7 0 -9 10 -5 25 4 14 3 25 -2 25 -5 0 -9 -6 -9
-12 0 -7 -4 -21 -8 -30 -5 -14 -2 -18 14 -18 12 0 21 -6 21 -15 0 -8 -6 -12
-13 -9 -7 2 -13 -4 -14 -15 -1 -13 3 -18 13 -14 9 3 14 -2 14 -15 0 -11 3 -27
6 -36 3 -9 1 -16 -5 -16 -6 0 -12 12 -12 28 -1 17 -3 21 -6 9 -3 -10 -1 -26 3
-35 4 -9 9 -30 11 -45 4 -38 28 -83 55 -101 38 -27 71 -20 107 22 45 51 68
121 78 242 6 79 6 104 -1 155 -7 51 -16 73 -16 40 0 -13 -3 -15 -13 -6 -8 6
-16 9 -18 7 -2 -2 -21 -6 -42 -9 -46 -6 -55 -13 -27 -20 11 -3 20 -1 20 3 0 5
14 8 31 8 27 -1 29 -2 12 -12 -10 -6 -29 -12 -43 -13 -14 -1 -35 -4 -47 -8
-15 -5 -23 -3 -23 4 0 7 5 9 10 6 6 -3 10 -2 10 3 0 5 -11 15 -25 22 -14 7
-25 17 -25 22 0 13 12 10 33 -9 11 -10 17 -12 13 -5 -4 7 -2 12 6 13 7 1 31 3
53 6 22 2 46 5 53 5 21 2 13 17 -13 24 -14 3 -25 13 -25 21 0 11 7 13 24 9 33
-8 39 4 14 25 -18 16 -19 24 -12 51 5 17 15 33 21 35 9 3 8 -7 -3 -33 -14 -33
-14 -36 -1 -26 12 10 23 7 61 -18 25 -17 51 -41 58 -53 15 -29 78 -108 103
-128 34 -29 38 2 5 36 -17 17 -30 38 -30 46 0 24 -30 59 -51 59 -11 0 -18 4
-14 9 3 5 -5 17 -17 25 -26 19 -20 20 19 5 15 -6 52 -17 81 -25 45 -12 58 -12
87 0 18 8 41 26 50 40 12 18 26 26 46 26 40 0 89 22 118 54 23 24 18 39 -6 15
-7 -7 -26 -7 -64 1 -30 6 -87 17 -127 23 -72 12 -73 13 -54 30 22 20 69 19 64
-1 -1 -8 2 -11 9 -6 6 3 48 6 93 6 45 -1 88 3 96 8 11 7 0 10 -35 11 -27 1
-59 2 -70 3 -11 0 -27 -2 -37 -6 -9 -4 -33 -1 -55 6 -29 11 -34 15 -21 21 9 4
21 4 27 1 5 -3 11 -2 13 4 4 14 99 24 135 15 26 -7 26 -8 8 -15 -19 -8 -19 -9
2 -9 34 -1 53 -12 53 -29 0 -8 3 -13 6 -9 12 12 -9 48 -36 62 -16 8 -54 15
-85 15 -52 0 -206 -29 -257 -49 -13 -5 -56 -19 -96 -32 -66 -20 -74 -21 -88
-7 -15 14 -15 18 0 40 14 21 14 26 1 46 -10 13 -22 19 -31 15 -28 -11 2 34 36
54 31 18 39 33 19 33 -7 0 -31 -20 -55 -44 -24 -24 -44 -39 -44 -35 0 5 -4 8
-8 6 -4 -1 -27 18 -50 43 -23 25 -42 40 -42 35 0 -6 17 -29 37 -50 36 -38 36
-40 16 -43 -55 -8 -20 -95 37 -91 53 3 70 -1 70 -17 0 -11 -6 -14 -22 -8 -13
4 -44 8 -70 8 -27 0 -48 4 -48 9 0 5 -7 7 -15 3 -9 -3 -15 0 -15 9 0 8 -6 18
-14 22 -7 4 -23 27 -35 50 -11 23 -33 50 -47 60 -15 10 -40 31 -55 46 -16 16
-33 26 -39 22 -5 -3 -10 -1 -10 4 0 12 -7 13 -28 4z m378 -143 c0 -5 4 -9 9
-7 5 1 8 -2 8 -8 -2 -12 -66 -14 -74 -2 -3 5 -9 3 -13 -4 -7 -10 -12 -10 -26
2 -16 13 -15 14 12 20 46 10 84 10 84 -1z m302 -59 c-23 -24 -37 -29 -95 -34
-37 -4 -75 -11 -85 -17 -13 -8 -7 -8 23 -3 59 11 244 8 285 -4 19 -6 48 -14
64 -18 l29 -6 -23 -16 c-21 -15 -25 -15 -54 0 -17 8 -42 18 -56 21 -19 5 -18
3 7 -9 41 -19 51 -35 21 -35 -30 1 -73 25 -73 42 0 7 -11 14 -25 15 -23 2 -23
2 -5 -6 14 -7 15 -10 5 -11 -8 0 1 -10 20 -21 l35 -20 -38 6 c-28 5 -37 3 -32
-5 7 -11 -59 -7 -107 7 -10 2 -18 0 -18 -6 0 -6 9 -11 20 -11 26 0 70 -28 70
-45 0 -11 -7 -11 -32 -2 -18 7 -36 16 -39 21 -4 5 -11 6 -17 2 -5 -3 -35 5
-67 18 l-57 23 21 20 22 20 -23 7 c-32 8 -38 8 -38 -4 0 -20 -33 -47 -51 -43
-10 3 -26 -2 -34 -11 -9 -9 -22 -16 -28 -16 -7 0 -3 8 8 16 19 15 19 15 -10
12 -27 -3 -30 0 -33 28 -2 22 2 33 14 38 10 4 20 2 24 -4 13 -21 122 -7 197
26 17 8 39 14 50 14 10 0 41 9 68 20 74 29 90 26 57 -9z m81 -127 c-7 -3 -9
-12 -6 -20 8 -23 -26 -28 -50 -8 -22 19 -22 19 -4 -2 9 -11 17 -24 17 -27 0
-14 -28 -6 -54 14 -27 21 -35 42 -13 34 6 -3 32 -1 57 4 51 10 71 12 53 5z
m-423 -46 c0 -5 -6 -8 -14 -5 -8 3 -17 -1 -20 -8 -7 -19 6 -26 24 -14 29 17
41 10 21 -13 -19 -20 -22 -20 -39 -5 -23 21 -25 55 -4 60 21 4 32 -1 32 -15z
m-85 -157 c-3 -5 -1 -12 5 -16 6 -4 8 -11 5 -16 -4 -5 0 -9 8 -9 8 0 18 7 21
16 4 10 12 14 22 10 9 -4 23 -1 31 6 11 9 16 9 24 -3 7 -12 10 -12 18 0 12 18
52 5 44 -15 -3 -7 0 -14 6 -14 15 0 14 -51 -3 -91 -7 -19 -11 -41 -8 -49 5
-13 3 -13 -12 -1 -9 8 -19 11 -23 8 -3 -4 5 -15 18 -26 20 -16 22 -23 13 -38
-6 -10 -24 -20 -40 -21 -16 -2 -32 -9 -36 -15 -5 -9 -10 -9 -20 1 -6 6 -22 12
-35 12 -14 0 -23 6 -23 15 0 8 -4 15 -9 15 -15 0 -20 38 -5 44 8 3 11 0 8 -9
-3 -8 0 -21 8 -28 18 -18 38 1 38 38 0 19 -5 25 -21 25 -19 0 -19 1 -5 16 20
19 20 25 2 18 -8 -3 -17 0 -22 7 -4 8 -3 10 4 5 7 -4 14 3 18 19 5 20 11 24
28 20 19 -5 19 -5 3 5 -13 8 -22 9 -31 1 -10 -8 -16 -8 -23 1 -14 18 -24 64
-16 72 10 9 15 7 8 -3z m149 -298 c-4 -16 -11 -30 -16 -32 -5 -1 -18 -12 -29
-24 -16 -18 -19 -18 -19 -4 0 9 -7 17 -15 17 -8 0 -15 4 -15 10 0 6 -5 9 -11
8 -6 -2 -13 2 -16 8 -2 7 16 14 47 18 28 4 48 11 45 16 -4 6 3 10 15 10 17 0
19 -4 14 -27z m-158 8 c-3 -5 2 -12 11 -15 15 -6 15 -8 3 -16 -22 -14 -25 -12
-28 15 -1 14 3 25 9 25 5 0 8 -4 5 -9z"/>
<path d="M1358 993 c18 -2 45 -2 60 0 15 2 0 4 -33 4 -33 0 -45 -2 -27 -4z"/>
<path d="M1331 966 c7 -8 129 -10 136 -3 3 4 -27 7 -67 7 -40 0 -71 -2 -69 -4z"/>
<path d="M1210 671 c0 -6 -8 -10 -17 -9 -39 3 -63 -3 -60 -14 1 -8 -7 -12 -22
-10 -18 2 -22 -2 -17 -14 3 -8 6 -21 6 -27 0 -9 2 -9 8 0 4 7 18 14 30 16 13
2 32 11 42 20 20 17 25 11 20 -23 -3 -25 17 2 24 32 3 15 2 30 -4 33 -5 3 -10
1 -10 -4z"/>
<path d="M1110 527 c0 -16 4 -26 10 -22 6 4 8 11 5 16 -4 5 4 8 17 6 14 -1 23
3 23 12 0 9 -11 15 -27 15 -24 1 -28 -2 -28 -27z"/>
<path d="M1437 1243 c-11 -13 -21 -22 -24 -19 -12 12 -108 -61 -144 -110 -22
-30 -44 -54 -49 -54 -6 0 -10 -5 -10 -10 0 -19 59 19 91 59 17 22 52 50 77 63
62 31 84 52 80 76 -3 19 -4 19 -21 -5z"/>
<path d="M504 1160 c-35 -11 -59 -51 -41 -69 6 -6 8 -11 3 -11 -4 0 1 -14 11
-30 24 -41 84 -88 135 -106 23 -8 52 -23 63 -33 11 -11 41 -22 68 -26 49 -8
163 2 153 13 -4 3 8 21 26 40 25 26 27 32 11 23 -12 -6 -42 -11 -68 -11 -39 0
-47 -4 -57 -24 -14 -33 -24 -35 -80 -19 -53 16 -60 27 -25 38 12 5 31 11 42
15 20 8 20 8 0 8 -11 0 -43 -3 -72 -7 -34 -5 -51 -4 -50 3 1 6 -9 12 -23 14
-85 12 -5 42 115 42 44 0 87 5 95 10 18 12 16 12 -88 10 -59 -1 -77 2 -98 19
-15 12 -23 21 -18 22 31 4 72 -5 88 -19 11 -10 16 -12 12 -5 -12 22 28 34 55
16 l24 -16 -25 27 c-13 15 -26 22 -28 17 -5 -14 -29 -14 -37 -1 -9 14 4 32 18
23 6 -4 18 -8 27 -9 8 -1 51 -15 95 -31 44 -17 94 -33 110 -36 27 -6 26 -5
-10 15 -22 11 -60 27 -85 34 -25 7 -76 25 -115 39 -76 29 -182 40 -231 25z
m159 -17 c21 -3 26 -8 18 -16 -6 -6 -7 -15 -2 -21 7 -8 -23 -11 -100 -11 -100
0 -109 2 -109 19 0 17 7 18 78 14 42 -3 86 -9 97 -12 19 -7 19 -7 2 4 -11 7
-47 15 -80 18 -48 4 -57 7 -37 13 24 7 71 4 133 -8z m-62 -82 l24 -19 -25 -6
c-52 -11 -67 -10 -93 7 -40 26 -33 37 22 37 33 0 56 -6 72 -19z m297 -133 c-5
-14 -78 -42 -86 -33 -3 3 3 14 13 25 20 22 79 28 73 8z"/>
<path d="M1648 1104 c-3 -3 -20 -6 -37 -6 -17 -1 -31 -4 -31 -9 0 -8 52 -2 84
11 14 6 16 9 5 9 -9 1 -18 -2 -21 -5z"/>
<path d="M705 1000 c-22 -3 -49 -12 -60 -19 -19 -12 -18 -12 5 -5 14 3 68 12
120 19 82 11 87 13 35 12 -33 -1 -78 -4 -100 -7z"/>
<path d="M770 966 c0 -7 -7 -19 -15 -26 -8 -7 -15 -17 -15 -23 0 -5 8 -3 18 6
10 10 25 17 33 17 12 0 12 2 -1 10 -20 12 -2 18 70 23 49 3 48 3 -17 5 -56 2
-73 -1 -73 -12z"/>
<path d="M1244 853 c-9 -3 -8 -13 3 -35 9 -17 22 -79 30 -137 8 -58 21 -139
30 -180 14 -63 21 -76 47 -92 36 -22 59 -21 64 3 2 12 -6 20 -29 26 -38 9 -46
24 -24 45 20 21 19 26 -12 59 -21 22 -24 30 -14 42 21 26 -9 174 -38 184 -10
3 1 -42 24 -103 6 -14 5 -17 -2 -10 -15 14 -56 135 -49 142 3 4 6 1 6 -5 0 -7
7 -12 15 -12 11 0 8 9 -11 37 -30 44 -26 41 -40 36z"/>
<path d="M1872 705 c-16 -35 -15 -44 6 -39 16 4 60 -42 50 -52 -10 -9 -68 9
-68 22 0 25 -20 14 -34 -18 -16 -39 -14 -43 12 -27 31 20 121 0 141 -31 15
-22 15 -24 -1 -18 -19 8 -43 -16 -33 -32 15 -24 65 -3 65 28 0 8 -25 48 -56
88 -35 45 -54 79 -50 89 10 26 -20 17 -32 -10z"/>
<path d="M480 630 c0 -13 -22 -36 -65 -67 -69 -50 -72 -58 -39 -110 25 -40 95
-30 119 18 16 31 9 65 -19 88 -13 11 -12 15 11 35 17 15 24 29 20 39 -9 24
-27 21 -27 -3z m-6 -96 c20 -19 20 -34 0 -62 -18 -26 -50 -28 -76 -5 -25 22
-23 38 8 62 32 25 47 26 68 5z"/>
<path d="M1769 540 c-9 -5 -20 -21 -23 -34 -4 -15 -15 -26 -28 -28 -31 -4 -35
-28 -5 -28 28 0 80 -47 73 -66 -9 -23 7 -24 31 -2 27 26 30 41 6 34 -38 -11
-74 46 -53 84 15 27 34 25 59 -6 18 -23 50 -26 35 -3 -3 5 -10 7 -15 4 -5 -4
-9 1 -9 9 0 8 -10 22 -22 30 -26 18 -28 19 -49 6z"/>
<path d="M1866 464 c-16 -15 -21 -34 -10 -34 13 0 42 21 48 35 7 20 -18 20
-38 -1z"/>
<path d="M492 417 c-29 -31 -29 -77 1 -105 24 -23 57 -30 57 -12 0 6 -6 10
-13 10 -20 0 -47 33 -47 58 0 31 15 27 55 -15 l35 -38 20 23 c15 19 17 28 9
50 -16 41 -29 52 -63 52 -21 0 -40 -8 -54 -23z m95 -27 c20 -40 -2 -49 -37
-15 -37 36 -38 47 -3 43 17 -2 32 -12 40 -28z"/>
<path d="M1635 400 c-29 -11 -47 -36 -43 -57 5 -26 34 -23 31 4 -3 31 19 46
42 29 19 -13 18 -15 -13 -44 -34 -32 -41 -62 -18 -81 17 -14 58 0 77 27 8 10
22 21 32 25 9 3 17 14 16 24 0 11 -3 13 -6 6 -8 -21 -20 -15 -43 22 -26 42
-48 55 -75 45z m68 -108 c-12 -21 -63 -29 -63 -11 0 7 12 26 27 41 27 29 28
29 37 8 7 -14 6 -27 -1 -38z"/>
<path d="M645 315 c-57 -56 -6 -148 71 -129 34 9 30 25 -5 22 -31 -2 -71 25
-71 49 0 18 10 17 61 -6 50 -23 59 -20 59 17 0 33 -8 45 -37 61 -33 17 -51 14
-78 -14z m89 -27 c5 -9 7 -20 3 -24 -10 -10 -88 27 -81 38 9 15 66 5 78 -14z"/>
<path d="M1490 295 c-7 -8 -20 -15 -29 -15 -10 0 -26 -7 -37 -15 -18 -14 -18
-14 7 -15 23 0 31 -9 57 -67 21 -48 27 -72 20 -80 -14 -18 10 -16 42 2 24 14
23 16 -10 19 -8 0 -16 11 -18 24 -3 18 1 22 21 22 31 0 48 20 49 59 1 44 -26
81 -61 81 -16 0 -34 -7 -41 -15z m68 -17 c5 -7 13 -23 16 -35 9 -28 -24 -64
-52 -56 -19 5 -42 41 -42 66 0 33 57 50 78 25z"/>
<path d="M948 239 c-33 -13 -55 -67 -39 -98 18 -32 41 -51 65 -51 30 0 61 24
51 39 -5 9 -10 10 -18 2 -17 -17 -64 -13 -71 5 -18 46 1 84 41 84 16 0 23 -6
23 -20 0 -25 29 -38 41 -19 14 22 11 28 -23 49 -37 22 -33 22 -70 9z"/>
<path d="M1310 238 c-65 -12 -67 -13 -50 -33 8 -10 11 -33 8 -66 l-5 -51 45 6
c25 3 47 7 48 9 2 1 -1 18 -5 38 -4 19 -4 46 1 59 9 23 10 24 20 7 5 -10 8
-38 6 -63 -3 -42 -2 -44 24 -44 31 0 36 11 13 30 -9 7 -15 29 -15 54 0 37 -14
68 -29 65 -4 -1 -31 -6 -61 -11z m9 -123 c-14 -14 -29 12 -29 51 0 16 6 36 13
43 10 10 13 3 19 -36 4 -28 3 -52 -3 -58z"/>
<path d="M1103 215 c-12 -8 -24 -28 -28 -44 -18 -84 105 -134 135 -56 16 41
12 64 -15 90 -28 28 -61 32 -92 10z m88 -41 c12 -32 -11 -74 -41 -74 -18 0
-63 46 -56 59 1 3 6 14 9 24 4 12 17 17 42 17 29 0 37 -5 46 -26z"/>
</g>
</svg>
