<?xml version="1.0" standalone="no"?>
<!DOCTYPE svg PUBLIC "-//W3C//DTD SVG 20010904//EN"
 "http://www.w3.org/TR/2001/REC-SVG-20010904/DTD/svg10.dtd">
<svg version="1.0" xmlns="http://www.w3.org/2000/svg"
 width="300.000000pt" height="74.000000pt" viewBox="0 0 300.000000 74.000000"
 preserveAspectRatio="xMidYMid meet">
<metadata>
Created by potrace 1.10, written by Peter Selinger 2001-2011
</metadata>
<g transform="translate(0.000000,74.000000) scale(0.100000,-0.100000)"
fill="#000000" stroke="none">
<path d="M266 647 c-24 -50 -57 -120 -75 -155 l-32 -62 38 16 c21 9 81 29 133
45 343 103 605 65 717 -105 l31 -46 6 34 c10 54 2 68 -95 167 -105 107 -263
172 -449 186 -47 3 -82 2 -78 -2 4 -4 65 -20 136 -35 157 -35 264 -78 323
-131 24 -23 35 -37 24 -34 -11 4 -45 16 -75 28 -70 25 -229 34 -340 18 -44 -7
-127 -25 -183 -41 -56 -16 -104 -27 -106 -24 -3 2 4 21 14 42 72 148 84 180
69 186 -11 4 -26 -18 -58 -87z"/>
<path d="M1450 690 c0 -5 11 -10 24 -10 23 0 24 -2 18 -65 -3 -45 -1 -65 7
-65 7 0 11 23 11 65 0 63 1 65 25 65 14 0 25 5 25 10 0 6 -25 10 -55 10 -30 0
-55 -4 -55 -10z"/>
<path d="M1580 625 c0 -43 4 -75 10 -75 6 0 10 16 10 35 0 33 2 35 35 35 33 0
35 -2 35 -35 0 -19 5 -35 10 -35 6 0 10 32 10 75 0 43 -4 75 -10 75 -5 0 -10
-15 -10 -33 0 -31 -2 -33 -35 -33 -33 0 -35 2 -35 33 0 18 -4 33 -10 33 -6 0
-10 -32 -10 -75z"/>
<path d="M1730 625 l0 -75 45 0 c25 0 45 5 45 10 0 6 -18 10 -40 10 -36 0 -40
3 -40 25 0 22 4 25 35 25 19 0 35 5 35 11 0 6 -14 9 -32 7 -28 -2 -34 1 -36
20 -3 20 1 22 37 22 23 0 41 5 41 10 0 6 -20 10 -45 10 l-45 0 0 -75z"/>
<path d="M1201 665 c-20 -53 -34 -79 -79 -142 -28 -42 -38 -63 -29 -63 18 0
65 53 92 103 11 20 22 37 25 37 3 0 12 -21 20 -47 7 -27 24 -74 37 -105 43
-107 30 -130 -131 -214 -122 -64 -114 -87 10 -28 63 29 184 120 184 137 0 7
-27 89 -59 182 -56 162 -60 169 -70 140z"/>
<path d="M1534 501 c-11 -5 -33 -23 -47 -41 -22 -26 -27 -42 -27 -86 0 -48 4
-59 34 -92 33 -35 37 -37 100 -37 48 0 70 4 82 17 17 16 17 18 0 37 -17 19
-21 19 -47 6 -34 -18 -69 -8 -93 27 -45 64 25 149 95 114 25 -13 29 -12 45 5
16 18 16 21 1 36 -18 19 -111 28 -143 14z"/>
<path d="M1730 503 c-1 -2 -1 -60 -1 -130 l0 -128 80 -3 81 -3 0 31 c0 29 -1
30 -50 30 l-50 0 0 104 0 103 -30 -1 c-16 -1 -30 -2 -30 -3z"/>
<path d="M1962 381 c-29 -69 -52 -129 -52 -133 0 -5 14 -8 31 -8 24 0 32 6 40
30 10 28 14 30 61 30 46 0 51 -2 61 -30 10 -25 17 -30 45 -30 39 0 41 -9 -26
149 -45 107 -50 114 -78 116 -29 2 -31 0 -82 -124z m101 5 l15 -44 -34 0 c-31
0 -34 2 -28 22 13 40 23 66 28 66 2 0 11 -20 19 -44z"/>
<path d="M2255 500 c-34 -13 -46 -36 -43 -77 3 -36 7 -40 61 -66 42 -20 57
-32 55 -45 -4 -23 -60 -28 -78 -7 -12 14 -15 14 -31 -1 -27 -25 -23 -41 12
-53 96 -33 175 15 155 95 -5 19 -21 32 -62 50 -41 18 -55 29 -52 42 4 21 44
28 64 11 11 -9 18 -8 34 6 26 24 25 29 -5 43 -30 14 -80 15 -110 2z"/>
<path d="M2457 490 c-55 -44 -42 -100 30 -132 54 -24 66 -37 51 -55 -14 -17
-48 -16 -68 2 -15 13 -19 12 -39 -9 l-23 -24 30 -16 c51 -26 109 -21 143 13
32 32 35 47 17 86 -8 17 -27 31 -60 43 -39 13 -48 21 -46 37 4 24 42 32 64 14
11 -9 18 -8 34 6 27 24 25 31 -11 44 -48 17 -93 13 -122 -9z"/>
<path d="M2650 374 l0 -135 31 3 30 3 0 130 0 130 -30 2 -31 3 0 -136z"/>
<path d="M2823 490 c-87 -53 -82 -189 8 -236 39 -20 123 -15 147 9 14 15 14
18 -2 36 -16 17 -20 18 -45 5 -51 -26 -101 10 -101 71 0 61 50 97 100 71 26
-13 30 -12 51 10 l22 24 -36 15 c-50 21 -106 19 -144 -5z"/>
<path d="M163 287 l-162 -152 50 -22 c145 -66 314 -103 465 -103 90 0 241 21
267 37 5 3 -26 20 -69 39 -42 18 -102 50 -133 70 -79 52 -182 159 -220 227
-18 31 -34 57 -34 56 -1 0 -75 -69 -164 -152z m205 26 c28 -38 60 -76 71 -85
89 -75 139 -112 181 -133 28 -14 50 -29 50 -34 0 -27 -181 -40 -270 -20 -25 6
-65 14 -90 18 -56 11 -221 68 -235 82 -7 7 2 21 30 46 22 20 78 72 125 115 47
43 86 78 87 78 0 0 24 -30 51 -67z"/>
<path d="M952 360 c-79 -48 -185 -81 -283 -87 l-76 -6 16 -56 c15 -49 21 -57
52 -68 63 -22 290 -13 253 10 -5 3 -58 5 -118 6 -121 0 -156 13 -156 56 0 19
5 25 20 25 95 0 327 87 351 131 6 11 9 22 7 24 -2 2 -31 -14 -66 -35z"/>
<path d="M980 159 c-25 -22 -76 -55 -113 -73 l-69 -34 34 -10 c43 -14 145 -30
235 -36 l71 -5 -42 72 c-24 40 -49 84 -57 99 l-14 26 -45 -39z m56 -31 c7 -18
18 -47 25 -65 7 -18 10 -35 7 -38 -7 -7 -146 24 -152 34 -5 8 88 101 101 101
5 0 13 -15 19 -32z"/>
<path d="M2290 187 c-37 -19 -55 -61 -40 -97 15 -37 62 -57 95 -42 14 7 25 16
25 22 0 7 -6 8 -19 0 -49 -26 -100 12 -87 65 8 33 50 53 76 37 12 -7 21 -8 25
-2 3 6 -6 15 -20 20 -31 12 -25 12 -55 -3z"/>
<path d="M2400 120 l0 -70 48 2 47 1 -42 4 c-38 4 -43 7 -43 29 0 21 5 24 35
24 19 0 35 5 35 10 0 6 -16 10 -35 10 -30 0 -35 3 -35 24 0 22 5 25 43 29 l42
4 -47 1 -48 2 0 -70z"/>
<path d="M2510 121 c0 -88 18 -104 22 -20 l3 62 38 -56 c20 -31 42 -57 47 -57
6 0 10 30 10 70 0 43 -4 70 -11 70 -7 0 -8 -18 -4 -55 4 -30 3 -55 -1 -55 -5
1 -25 25 -44 55 -47 75 -60 72 -60 -14z"/>
<path d="M2673 183 c26 -4 27 -6 27 -74 0 -44 4 -68 10 -64 6 3 10 35 10 70 0
62 1 64 28 68 15 2 -2 4 -38 4 -36 0 -53 -2 -37 -4z"/>
<path d="M2785 120 l-1 -70 51 2 c50 1 50 1 8 5 -38 4 -43 7 -43 29 0 21 5 24
35 24 19 0 35 5 35 10 0 6 -16 10 -35 10 -30 0 -35 3 -35 24 0 22 5 25 43 29
l42 4 -50 1 -50 2 0 -70z"/>
<path d="M2900 121 c0 -38 5 -73 10 -76 6 -4 10 8 10 29 0 44 19 47 42 6 9
-17 22 -30 27 -30 6 0 1 15 -10 34 -17 30 -18 34 -4 40 11 4 15 15 13 33 -3
25 -7 28 -45 31 l-43 3 0 -70z m69 50 c21 -13 5 -41 -24 -41 -20 0 -25 5 -25
25 0 26 22 33 49 16z"/>
</g>
</svg>
